<mxfile host="app.diagrams.net" modified="2021-07-07T06:15:53.786Z" agent="5.0 (Windows NT 10.0; Win64; x64) AppleWebKit/537.36 (KHTML, like Gecko) Chrome/91.0.4472.124 Safari/537.36" etag="CukUClbQyvEn_9znERW9" version="14.8.4" type="github">
  <diagram name="Page-1" id="2c0d36ab-eaac-3732-788b-9136903baeff">
    <mxGraphModel dx="3317" dy="1909" grid="1" gridSize="10" guides="1" tooltips="1" connect="1" arrows="1" fold="1" page="1" pageScale="1.5" pageWidth="1169" pageHeight="827" background="#F1FAEE" math="0" shadow="0">
      <root>
        <mxCell id="0" />
        <mxCell id="1" parent="0" />
        <mxCell id="4LDgfZjawk7CEWpmi5JP-204" style="edgeStyle=orthogonalEdgeStyle;orthogonalLoop=1;jettySize=auto;html=1;exitX=0.5;exitY=1;exitDx=0;exitDy=0;entryX=0.5;entryY=0;entryDx=0;entryDy=0;strokeColor=#457B9D;fontColor=#1D3557;labelBackgroundColor=#F1FAEE;curved=1;" edge="1" parent="1" source="4LDgfZjawk7CEWpmi5JP-123" target="4LDgfZjawk7CEWpmi5JP-130">
          <mxGeometry relative="1" as="geometry" />
        </mxCell>
        <mxCell id="4LDgfZjawk7CEWpmi5JP-123" value="&lt;font style=&quot;font-size: 14px&quot;&gt;플랫폼 시작&lt;/font&gt;" style="whiteSpace=wrap;html=1;fillColor=#A8DADC;strokeColor=#457B9D;fontColor=#1D3557;rounded=1;" vertex="1" parent="1">
          <mxGeometry x="868" y="365" width="90" height="50" as="geometry" />
        </mxCell>
        <mxCell id="4LDgfZjawk7CEWpmi5JP-141" style="edgeStyle=orthogonalEdgeStyle;orthogonalLoop=1;jettySize=auto;html=1;exitX=0.5;exitY=1;exitDx=0;exitDy=0;entryX=0.5;entryY=0;entryDx=0;entryDy=0;strokeColor=#457B9D;fontColor=#1D3557;labelBackgroundColor=#F1FAEE;curved=1;" edge="1" parent="1" source="4LDgfZjawk7CEWpmi5JP-129" target="4LDgfZjawk7CEWpmi5JP-131">
          <mxGeometry relative="1" as="geometry" />
        </mxCell>
        <mxCell id="4LDgfZjawk7CEWpmi5JP-199" style="edgeStyle=orthogonalEdgeStyle;orthogonalLoop=1;jettySize=auto;html=1;exitX=0;exitY=0.5;exitDx=0;exitDy=0;strokeColor=#457B9D;fontColor=#1D3557;labelBackgroundColor=#F1FAEE;curved=1;" edge="1" parent="1" source="4LDgfZjawk7CEWpmi5JP-129" target="4LDgfZjawk7CEWpmi5JP-138">
          <mxGeometry relative="1" as="geometry" />
        </mxCell>
        <mxCell id="4LDgfZjawk7CEWpmi5JP-129" value="&lt;font style=&quot;font-size: 14px&quot;&gt;로그인&lt;/font&gt;" style="whiteSpace=wrap;html=1;fillColor=#A8DADC;strokeColor=#457B9D;fontColor=#1D3557;rounded=1;" vertex="1" parent="1">
          <mxGeometry x="651" y="554.5" width="90" height="50" as="geometry" />
        </mxCell>
        <mxCell id="4LDgfZjawk7CEWpmi5JP-203" style="edgeStyle=orthogonalEdgeStyle;orthogonalLoop=1;jettySize=auto;html=1;exitX=0.5;exitY=1;exitDx=0;exitDy=0;entryX=0.5;entryY=0;entryDx=0;entryDy=0;strokeColor=#457B9D;fontColor=#1D3557;labelBackgroundColor=#F1FAEE;curved=1;" edge="1" parent="1" source="4LDgfZjawk7CEWpmi5JP-130" target="4LDgfZjawk7CEWpmi5JP-153">
          <mxGeometry relative="1" as="geometry" />
        </mxCell>
        <mxCell id="4LDgfZjawk7CEWpmi5JP-222" style="edgeStyle=orthogonalEdgeStyle;orthogonalLoop=1;jettySize=auto;html=1;exitX=0;exitY=0.5;exitDx=0;exitDy=0;entryX=0.5;entryY=0;entryDx=0;entryDy=0;strokeColor=#457B9D;fontColor=#1D3557;labelBackgroundColor=#F1FAEE;curved=1;" edge="1" parent="1" source="4LDgfZjawk7CEWpmi5JP-130" target="4LDgfZjawk7CEWpmi5JP-129">
          <mxGeometry relative="1" as="geometry" />
        </mxCell>
        <mxCell id="4LDgfZjawk7CEWpmi5JP-223" style="edgeStyle=orthogonalEdgeStyle;orthogonalLoop=1;jettySize=auto;html=1;exitX=0;exitY=0.5;exitDx=0;exitDy=0;entryX=0.5;entryY=0;entryDx=0;entryDy=0;strokeColor=#457B9D;fontColor=#1D3557;labelBackgroundColor=#F1FAEE;curved=1;" edge="1" parent="1" source="4LDgfZjawk7CEWpmi5JP-130" target="4LDgfZjawk7CEWpmi5JP-217">
          <mxGeometry relative="1" as="geometry" />
        </mxCell>
        <mxCell id="4LDgfZjawk7CEWpmi5JP-224" style="edgeStyle=orthogonalEdgeStyle;orthogonalLoop=1;jettySize=auto;html=1;exitX=1;exitY=0.5;exitDx=0;exitDy=0;entryX=0.5;entryY=0;entryDx=0;entryDy=0;strokeColor=#457B9D;fontColor=#1D3557;labelBackgroundColor=#F1FAEE;curved=1;" edge="1" parent="1" source="4LDgfZjawk7CEWpmi5JP-130" target="4LDgfZjawk7CEWpmi5JP-152">
          <mxGeometry relative="1" as="geometry" />
        </mxCell>
        <mxCell id="4LDgfZjawk7CEWpmi5JP-130" value="&lt;span style=&quot;font-size: 14px&quot;&gt;서비스 선택&amp;nbsp;&lt;/span&gt;" style="whiteSpace=wrap;html=1;fillColor=#A8DADC;strokeColor=#457B9D;fontColor=#1D3557;rounded=1;" vertex="1" parent="1">
          <mxGeometry x="863" y="445" width="100" height="50" as="geometry" />
        </mxCell>
        <mxCell id="4LDgfZjawk7CEWpmi5JP-142" style="edgeStyle=orthogonalEdgeStyle;orthogonalLoop=1;jettySize=auto;html=1;exitX=0.5;exitY=1;exitDx=0;exitDy=0;entryX=0.5;entryY=0;entryDx=0;entryDy=0;strokeColor=#457B9D;fontColor=#1D3557;labelBackgroundColor=#F1FAEE;curved=1;" edge="1" parent="1" source="4LDgfZjawk7CEWpmi5JP-131" target="4LDgfZjawk7CEWpmi5JP-135">
          <mxGeometry relative="1" as="geometry" />
        </mxCell>
        <mxCell id="4LDgfZjawk7CEWpmi5JP-196" style="edgeStyle=orthogonalEdgeStyle;orthogonalLoop=1;jettySize=auto;html=1;exitX=0.5;exitY=1;exitDx=0;exitDy=0;strokeColor=#457B9D;fontColor=#1D3557;labelBackgroundColor=#F1FAEE;curved=1;" edge="1" parent="1" source="4LDgfZjawk7CEWpmi5JP-131" target="4LDgfZjawk7CEWpmi5JP-145">
          <mxGeometry relative="1" as="geometry" />
        </mxCell>
        <mxCell id="4LDgfZjawk7CEWpmi5JP-131" value="&lt;span style=&quot;font-size: 14px&quot;&gt;마이 페이지&lt;/span&gt;" style="whiteSpace=wrap;html=1;fillColor=#A8DADC;strokeColor=#457B9D;fontColor=#1D3557;rounded=1;" vertex="1" parent="1">
          <mxGeometry x="651" y="625" width="90" height="50" as="geometry" />
        </mxCell>
        <mxCell id="4LDgfZjawk7CEWpmi5JP-135" value="&lt;span style=&quot;font-size: 14px&quot;&gt;친구 관리&lt;/span&gt;" style="whiteSpace=wrap;html=1;fillColor=#A8DADC;strokeColor=#457B9D;fontColor=#1D3557;rounded=1;" vertex="1" parent="1">
          <mxGeometry x="651" y="725.5" width="90" height="50" as="geometry" />
        </mxCell>
        <mxCell id="4LDgfZjawk7CEWpmi5JP-138" value="&lt;span style=&quot;font-size: 14px&quot;&gt;친구 채팅&lt;/span&gt;" style="whiteSpace=wrap;html=1;fillColor=#A8DADC;strokeColor=#457B9D;fontColor=#1D3557;rounded=1;" vertex="1" parent="1">
          <mxGeometry x="553" y="625" width="90" height="50" as="geometry" />
        </mxCell>
        <mxCell id="4LDgfZjawk7CEWpmi5JP-227" style="edgeStyle=orthogonalEdgeStyle;orthogonalLoop=1;jettySize=auto;html=1;exitX=0.5;exitY=1;exitDx=0;exitDy=0;entryX=0.5;entryY=0;entryDx=0;entryDy=0;strokeColor=#457B9D;fontColor=#1D3557;labelBackgroundColor=#F1FAEE;curved=1;" edge="1" parent="1" source="4LDgfZjawk7CEWpmi5JP-145" target="4LDgfZjawk7CEWpmi5JP-179">
          <mxGeometry relative="1" as="geometry" />
        </mxCell>
        <mxCell id="4LDgfZjawk7CEWpmi5JP-228" style="edgeStyle=orthogonalEdgeStyle;orthogonalLoop=1;jettySize=auto;html=1;exitX=0.5;exitY=1;exitDx=0;exitDy=0;entryX=0.5;entryY=0;entryDx=0;entryDy=0;strokeColor=#457B9D;fontColor=#1D3557;labelBackgroundColor=#F1FAEE;curved=1;" edge="1" parent="1" source="4LDgfZjawk7CEWpmi5JP-145" target="4LDgfZjawk7CEWpmi5JP-178">
          <mxGeometry relative="1" as="geometry" />
        </mxCell>
        <mxCell id="4LDgfZjawk7CEWpmi5JP-229" style="edgeStyle=orthogonalEdgeStyle;orthogonalLoop=1;jettySize=auto;html=1;exitX=0.5;exitY=1;exitDx=0;exitDy=0;entryX=0.5;entryY=0;entryDx=0;entryDy=0;strokeColor=#457B9D;fontColor=#1D3557;labelBackgroundColor=#F1FAEE;curved=1;" edge="1" parent="1" source="4LDgfZjawk7CEWpmi5JP-145" target="4LDgfZjawk7CEWpmi5JP-180">
          <mxGeometry relative="1" as="geometry" />
        </mxCell>
        <mxCell id="4LDgfZjawk7CEWpmi5JP-145" value="&lt;span style=&quot;font-size: 14px&quot;&gt;내 글 관리&lt;/span&gt;" style="whiteSpace=wrap;html=1;fillColor=#A8DADC;strokeColor=#457B9D;fontColor=#1D3557;rounded=1;" vertex="1" parent="1">
          <mxGeometry x="553" y="725.5" width="90" height="50" as="geometry" />
        </mxCell>
        <mxCell id="4LDgfZjawk7CEWpmi5JP-209" style="edgeStyle=orthogonalEdgeStyle;orthogonalLoop=1;jettySize=auto;html=1;exitX=0.5;exitY=1;exitDx=0;exitDy=0;entryX=0.5;entryY=0;entryDx=0;entryDy=0;strokeColor=#457B9D;fontColor=#1D3557;labelBackgroundColor=#F1FAEE;curved=1;" edge="1" parent="1" source="4LDgfZjawk7CEWpmi5JP-152" target="4LDgfZjawk7CEWpmi5JP-167">
          <mxGeometry relative="1" as="geometry" />
        </mxCell>
        <mxCell id="4LDgfZjawk7CEWpmi5JP-240" style="edgeStyle=orthogonalEdgeStyle;orthogonalLoop=1;jettySize=auto;html=1;exitX=0.5;exitY=1;exitDx=0;exitDy=0;entryX=0.5;entryY=0;entryDx=0;entryDy=0;strokeColor=#457B9D;fontColor=#1D3557;labelBackgroundColor=#F1FAEE;curved=1;" edge="1" parent="1" source="4LDgfZjawk7CEWpmi5JP-152" target="4LDgfZjawk7CEWpmi5JP-239">
          <mxGeometry relative="1" as="geometry" />
        </mxCell>
        <mxCell id="4LDgfZjawk7CEWpmi5JP-152" value="&lt;span style=&quot;font-size: 14px&quot;&gt;커뮤니티 서비스&lt;/span&gt;" style="whiteSpace=wrap;html=1;fillColor=#A8DADC;strokeColor=#457B9D;fontColor=#1D3557;rounded=1;" vertex="1" parent="1">
          <mxGeometry x="1090" y="554.5" width="120" height="50" as="geometry" />
        </mxCell>
        <mxCell id="4LDgfZjawk7CEWpmi5JP-158" style="edgeStyle=orthogonalEdgeStyle;orthogonalLoop=1;jettySize=auto;html=1;exitX=0.5;exitY=1;exitDx=0;exitDy=0;entryX=0.5;entryY=0;entryDx=0;entryDy=0;strokeColor=#457B9D;fontColor=#1D3557;labelBackgroundColor=#F1FAEE;curved=1;" edge="1" parent="1" source="4LDgfZjawk7CEWpmi5JP-153" target="4LDgfZjawk7CEWpmi5JP-156">
          <mxGeometry relative="1" as="geometry" />
        </mxCell>
        <mxCell id="4LDgfZjawk7CEWpmi5JP-191" style="edgeStyle=orthogonalEdgeStyle;orthogonalLoop=1;jettySize=auto;html=1;exitX=0.5;exitY=1;exitDx=0;exitDy=0;entryX=0.5;entryY=0;entryDx=0;entryDy=0;strokeColor=#457B9D;fontColor=#1D3557;labelBackgroundColor=#F1FAEE;curved=1;" edge="1" parent="1" source="4LDgfZjawk7CEWpmi5JP-153" target="4LDgfZjawk7CEWpmi5JP-154">
          <mxGeometry relative="1" as="geometry" />
        </mxCell>
        <mxCell id="4LDgfZjawk7CEWpmi5JP-192" style="edgeStyle=orthogonalEdgeStyle;orthogonalLoop=1;jettySize=auto;html=1;exitX=0.5;exitY=1;exitDx=0;exitDy=0;strokeColor=#457B9D;fontColor=#1D3557;labelBackgroundColor=#F1FAEE;curved=1;" edge="1" parent="1" source="4LDgfZjawk7CEWpmi5JP-153" target="4LDgfZjawk7CEWpmi5JP-155">
          <mxGeometry relative="1" as="geometry" />
        </mxCell>
        <mxCell id="4LDgfZjawk7CEWpmi5JP-153" value="&lt;span style=&quot;font-size: 14px&quot;&gt;전적 검색 서비스&lt;/span&gt;" style="whiteSpace=wrap;html=1;fillColor=#A8DADC;strokeColor=#457B9D;fontColor=#1D3557;rounded=1;" vertex="1" parent="1">
          <mxGeometry x="853" y="554.5" width="120" height="50" as="geometry" />
        </mxCell>
        <mxCell id="4LDgfZjawk7CEWpmi5JP-242" style="edgeStyle=orthogonalEdgeStyle;orthogonalLoop=1;jettySize=auto;html=1;exitX=0.5;exitY=1;exitDx=0;exitDy=0;entryX=0.5;entryY=0;entryDx=0;entryDy=0;strokeColor=#457B9D;fontColor=#1D3557;labelBackgroundColor=#F1FAEE;curved=1;" edge="1" parent="1" source="4LDgfZjawk7CEWpmi5JP-154" target="4LDgfZjawk7CEWpmi5JP-241">
          <mxGeometry relative="1" as="geometry" />
        </mxCell>
        <mxCell id="4LDgfZjawk7CEWpmi5JP-154" value="&lt;span style=&quot;font-size: 14px&quot;&gt;Maple&lt;/span&gt;" style="whiteSpace=wrap;html=1;fillColor=#A8DADC;strokeColor=#457B9D;fontColor=#1D3557;rounded=1;" vertex="1" parent="1">
          <mxGeometry x="753" y="725.5" width="90" height="50" as="geometry" />
        </mxCell>
        <mxCell id="4LDgfZjawk7CEWpmi5JP-244" style="edgeStyle=orthogonalEdgeStyle;orthogonalLoop=1;jettySize=auto;html=1;exitX=0.5;exitY=1;exitDx=0;exitDy=0;entryX=0.5;entryY=0;entryDx=0;entryDy=0;strokeColor=#457B9D;fontColor=#1D3557;labelBackgroundColor=#F1FAEE;curved=1;" edge="1" parent="1" source="4LDgfZjawk7CEWpmi5JP-155" target="4LDgfZjawk7CEWpmi5JP-241">
          <mxGeometry relative="1" as="geometry" />
        </mxCell>
        <mxCell id="4LDgfZjawk7CEWpmi5JP-155" value="&lt;span style=&quot;font-size: 14px&quot;&gt;BattleGround&lt;/span&gt;" style="whiteSpace=wrap;html=1;fillColor=#A8DADC;strokeColor=#457B9D;fontColor=#1D3557;rounded=1;" vertex="1" parent="1">
          <mxGeometry x="983" y="725.5" width="90" height="50" as="geometry" />
        </mxCell>
        <mxCell id="4LDgfZjawk7CEWpmi5JP-243" style="edgeStyle=orthogonalEdgeStyle;orthogonalLoop=1;jettySize=auto;html=1;exitX=0.5;exitY=1;exitDx=0;exitDy=0;entryX=0.5;entryY=0;entryDx=0;entryDy=0;strokeColor=#457B9D;fontColor=#1D3557;labelBackgroundColor=#F1FAEE;curved=1;" edge="1" parent="1" source="4LDgfZjawk7CEWpmi5JP-156" target="4LDgfZjawk7CEWpmi5JP-241">
          <mxGeometry relative="1" as="geometry" />
        </mxCell>
        <mxCell id="4LDgfZjawk7CEWpmi5JP-156" value="&lt;span style=&quot;font-size: 14px&quot;&gt;LOL&lt;/span&gt;" style="whiteSpace=wrap;html=1;fillColor=#A8DADC;strokeColor=#457B9D;fontColor=#1D3557;rounded=1;" vertex="1" parent="1">
          <mxGeometry x="868" y="725.5" width="90" height="50" as="geometry" />
        </mxCell>
        <mxCell id="4LDgfZjawk7CEWpmi5JP-166" value="&lt;span style=&quot;font-size: 14px&quot;&gt;인기글&lt;/span&gt;" style="whiteSpace=wrap;html=1;fillColor=#A8DADC;strokeColor=#457B9D;fontColor=#1D3557;rounded=1;" vertex="1" parent="1">
          <mxGeometry x="1210" y="825" width="90" height="50" as="geometry" />
        </mxCell>
        <mxCell id="4LDgfZjawk7CEWpmi5JP-230" style="edgeStyle=orthogonalEdgeStyle;orthogonalLoop=1;jettySize=auto;html=1;exitX=0.5;exitY=1;exitDx=0;exitDy=0;strokeColor=#457B9D;fontColor=#1D3557;labelBackgroundColor=#F1FAEE;curved=1;" edge="1" parent="1" source="4LDgfZjawk7CEWpmi5JP-167" target="4LDgfZjawk7CEWpmi5JP-177">
          <mxGeometry relative="1" as="geometry" />
        </mxCell>
        <mxCell id="4LDgfZjawk7CEWpmi5JP-231" style="edgeStyle=orthogonalEdgeStyle;orthogonalLoop=1;jettySize=auto;html=1;exitX=0.5;exitY=1;exitDx=0;exitDy=0;entryX=0.5;entryY=0;entryDx=0;entryDy=0;strokeColor=#457B9D;fontColor=#1D3557;labelBackgroundColor=#F1FAEE;curved=1;" edge="1" parent="1" source="4LDgfZjawk7CEWpmi5JP-167" target="4LDgfZjawk7CEWpmi5JP-166">
          <mxGeometry relative="1" as="geometry" />
        </mxCell>
        <mxCell id="4LDgfZjawk7CEWpmi5JP-167" value="&lt;span style=&quot;font-size: 14px&quot;&gt;게시물 관리&lt;/span&gt;" style="whiteSpace=wrap;html=1;fillColor=#A8DADC;strokeColor=#457B9D;fontColor=#1D3557;rounded=1;" vertex="1" parent="1">
          <mxGeometry x="1105" y="725.5" width="90" height="50" as="geometry" />
        </mxCell>
        <mxCell id="4LDgfZjawk7CEWpmi5JP-177" value="&lt;span style=&quot;font-size: 14px&quot;&gt;게시물 조회&lt;/span&gt;" style="whiteSpace=wrap;html=1;fillColor=#A8DADC;strokeColor=#457B9D;fontColor=#1D3557;rounded=1;" vertex="1" parent="1">
          <mxGeometry x="1105" y="825" width="90" height="50" as="geometry" />
        </mxCell>
        <mxCell id="4LDgfZjawk7CEWpmi5JP-178" value="&lt;span style=&quot;font-size: 14px&quot;&gt;게시물 수정&lt;/span&gt;" style="whiteSpace=wrap;html=1;fillColor=#A8DADC;strokeColor=#457B9D;fontColor=#1D3557;rounded=1;" vertex="1" parent="1">
          <mxGeometry x="651" y="825" width="90" height="50" as="geometry" />
        </mxCell>
        <mxCell id="4LDgfZjawk7CEWpmi5JP-179" value="&lt;span style=&quot;font-size: 14px&quot;&gt;게시물 삭제&lt;/span&gt;" style="whiteSpace=wrap;html=1;fillColor=#A8DADC;strokeColor=#457B9D;fontColor=#1D3557;rounded=1;" vertex="1" parent="1">
          <mxGeometry x="553" y="825" width="90" height="50" as="geometry" />
        </mxCell>
        <mxCell id="4LDgfZjawk7CEWpmi5JP-180" value="&lt;span style=&quot;font-size: 14px&quot;&gt;게시물 작&lt;span style=&quot;white-space: pre&quot;&gt;	&lt;/span&gt;성&lt;/span&gt;" style="whiteSpace=wrap;html=1;fillColor=#A8DADC;strokeColor=#457B9D;fontColor=#1D3557;rounded=1;" vertex="1" parent="1">
          <mxGeometry x="453" y="825" width="90" height="50" as="geometry" />
        </mxCell>
        <mxCell id="4LDgfZjawk7CEWpmi5JP-217" value="&lt;font style=&quot;font-size: 14px&quot;&gt;회원가입&lt;/font&gt;" style="whiteSpace=wrap;html=1;fillColor=#A8DADC;strokeColor=#457B9D;fontColor=#1D3557;rounded=1;" vertex="1" parent="1">
          <mxGeometry x="453" y="554.5" width="90" height="50" as="geometry" />
        </mxCell>
        <mxCell id="4LDgfZjawk7CEWpmi5JP-239" value="&lt;span style=&quot;font-size: 14px&quot;&gt;접속자 채팅&lt;/span&gt;" style="whiteSpace=wrap;html=1;fillColor=#A8DADC;strokeColor=#457B9D;fontColor=#1D3557;rounded=1;" vertex="1" parent="1">
          <mxGeometry x="1210" y="725.5" width="90" height="50" as="geometry" />
        </mxCell>
        <mxCell id="4LDgfZjawk7CEWpmi5JP-241" value="&lt;span style=&quot;font-size: 14px&quot;&gt;게임별 api 활용 서비스&amp;nbsp;&lt;/span&gt;" style="whiteSpace=wrap;html=1;fillColor=#A8DADC;strokeColor=#457B9D;fontColor=#1D3557;rounded=1;" vertex="1" parent="1">
          <mxGeometry x="753" y="815" width="320" height="60" as="geometry" />
        </mxCell>
      </root>
    </mxGraphModel>
  </diagram>
</mxfile>
